<?xml version="1.0" encoding="UTF-8" standalone="no"?>
<svg
   xmlns:dc="http://purl.org/dc/elements/1.1/"
   xmlns:cc="http://creativecommons.org/ns#"
   xmlns:rdf="http://www.w3.org/1999/02/22-rdf-syntax-ns#"
   xmlns:svg="http://www.w3.org/2000/svg"
   xmlns="http://www.w3.org/2000/svg"
   xmlns:xlink="http://www.w3.org/1999/xlink"
   width="52.916668mm"
   height="52.916668mm"
   viewBox="0 0 52.916669 52.916668"
   version="1.1"
   id="svg8">
  <defs
     id="defs2">
    <linearGradient
       id="linearGradient836">
      <stop
         style="stop-color:#de3050;stop-opacity:1"
         offset="0"
         id="stop832" />
      <stop
         style="stop-color:#edc44e;stop-opacity:1"
         offset="1"
         id="stop834" />
    </linearGradient>
    <linearGradient
       xlink:href="#linearGradient836"
       id="linearGradient838"
       x1="92.787796"
       y1="77.159668"
       x2="114.39324"
       y2="91.248947"
       gradientUnits="userSpaceOnUse"
       gradientTransform="matrix(1.0065577,0,0,1.0065577,-0.51402064,-0.77356943)" />
    <linearGradient
       gradientTransform="translate(-18.785838,0.29934433)"
       gradientUnits="userSpaceOnUse"
       y2="111.68488"
       x2="125.47089"
       y1="73.566948"
       x1="91.164749"
       id="linearGradient4549"
       xlink:href="#linearGradient836" />
  </defs>
  <metadata
     id="metadata5">
    <rdf:RDF>
      <cc:Work
         rdf:about="">
        <dc:format>image/svg+xml</dc:format>
        <dc:type
           rdf:resource="http://purl.org/dc/dcmitype/StillImage" />
        <dc:title></dc:title>
      </cc:Work>
    </rdf:RDF>
  </metadata>
  <g
     transform="translate(-59.598192,-65.345804)"
     id="g4529">
    <g
       id="g4523" />
    <circle
       r="26.458334"
       cy="91.804138"
       cx="86.056526"
       id="circle4525"
       style="opacity:1;fill:url(#linearGradient4549);fill-opacity:1;stroke:none;stroke-width:1.76240623;stroke-miterlimit:4;stroke-dasharray:none;stroke-opacity:1" />
    <path
       style="opacity:1;fill:#ffffff;fill-opacity:1;stroke:none;stroke-width:1.30336452;stroke-miterlimit:4;stroke-dasharray:none;stroke-opacity:1"
       d="m 74.134879,76.967207 -0.73896,0.842536 3.34476,2.933324 -3.42173,3.431558 -0.0266,3.917501 1.86603,2.090799 -0.0393,6.901197 5.39953,5.483448 h 5.445791 0.0376 5.44579 l 5.39953,-5.483448 -0.0393,-6.901197 1.86603,-2.090799 -0.0266,-3.917501 -3.346,-3.355406 3.43197,-3.009476 -0.73896,-0.842536 -4.02314,3.528176 -6.60315,0.01635 -1.37557,2.872736 v 7.88e-4 l -0.0188,-7.88e-4 -1.37558,-2.872736 -6.439811,-0.01591 z m 3.20188,4.648692 0.40162,0.0028 2.6136,2.291805 h -1.83247 v 4.645009 h 4.658531 v -2.166534 l 2.31514,2.030195 -1.48448,2.597616 h -6.667021 l -2.96403,-3.215819 -0.0258,-3.106106 z m 17.292911,0 2.98491,3.078654 -0.0258,3.106106 -2.96403,3.215791 h -6.52987 l -1.46359,-2.593527 2.29589,-2.013403 v 2.154647 h 4.65852 v -4.64501 h -1.81894 l 2.62504,-2.302032 z m -1.94873,0.01169 -6.61215,5.798685 -0.004,-0.0067 -0.004,0.0067 -6.611351,-5.797867 4.522201,0.0254 2.01178,4.005139 2.01177,-4.005139 z m -13.142441,3.298905 h 1.971661 l 0.64889,0.569065 v 2.04412 h -2.620551 z m 11.070081,0.0082 h 1.95815 v 2.613185 h -2.62055 v -2.03226 z m -4.52505,4.366625 1.25766,2.229568 -1.2462,2.179632 -1.25767,-2.229177 z m -9.999111,1.847611 0.60878,0.701289 -0.0528,5.346303 -0.62187,-0.608766 z m 19.797601,0 0.0659,5.438836 -0.62187,0.608776 -0.0529,-5.34631 z m -18.540341,0.926038 h 0.0196 l -0.0196,4.08e-4 z m 0.35085,0 h 6.290391 l 2.1043,3.730448 2.13213,-3.730448 h 6.05455 l 0.006,6.23307 -3.28171,3.239142 h -4.88424 -0.26201 -4.884511 l -3.28169,-3.239182 z m 16.912581,0 h 0.0196 v 4.08e-4 z M 77.209449,105.12886 v 1.05584 h 7.058811 v -1.05584 z m 10.564061,0 v 1.05584 h 7.05881 v -1.05584 z"
       id="path4527" />
  </g>
</svg>
