<?xml version="1.0" encoding="utf-8"?>
<!-- Generator: Adobe Illustrator 24.0.0, SVG Export Plug-In . SVG Version: 6.00 Build 0)  -->
<svg version="1.1" id="Calque_1" xmlns="http://www.w3.org/2000/svg" xmlns:xlink="http://www.w3.org/1999/xlink" x="0px" y="0px"
	 viewBox="0 0 1280 1024" style="enable-background:new 0 0 1280 1024;" xml:space="preserve">
<style type="text/css">
	.st0{fill:#B20065;}
	.st1{fill:#C13383;}
	.st2{fill:#C43D8A;}
	.st3{fill:#C6418C;}
	.st4{fill:#C43C89;}
	.st5{fill:#D880B1;}
	.st6{fill:#C7458E;}
	.st7{fill:#D77DB0;}
	.st8{fill:#C5408B;}
	.st9{fill:#EABDD7;}
	.st10{fill:#ECC2DA;}
	.st11{fill:#C6438D;}
	.st12{fill:#FDFDFD;}
	.st13{fill:#FEFEFE;}
</style>
<g>
	<path class="st0" d="M596,573.9c-0.7,5.1-1.1,10.2-2.9,15c-1.1,3-2.4,5.8-5.1,7.8c-1.4,1-2.9,1.6-4.6,1.7c-0.6,0-1.3,0-1.9,0
		c-18,0-36,0-54,0c-1,0-1.4,0.3-1.2,1.3c-0.3,0.6,0,1.3-0.2,1.9c0,0.3,0,0.5,0,0.8c0.2,0.5-0.1,1.1,0.2,1.6c0.1,4.3,3,7.9,7.8,9.2
		c1.3,0.4,2.7,0.7,4.2,0.6c2.1,0.2,4.2,0.2,6.3,0c0.9,0,1.9,0,2.8-0.1c0.7-0.2,1.4,0.1,2.1-0.2c0.5,0,1,0,1.5-0.1
		c0.5-0.2,1.1,0.1,1.6-0.2c0.3,0,0.7,0,1-0.1c0.4-0.2,0.9,0.1,1.3-0.2c4.3-0.3,8.5-1.2,12.7-2.2c3.2-0.7,6.3-1.7,9.5-2.8
		c0.1,1.9-0.4,3.7-0.6,5.5c-0.3,2.8-0.8,5.6-1.2,8.5c-0.6,4.1-1.2,8.2-1.8,12.3c0,0,0,0.1,0,0.1c0.3,2.6-1.2,3.4-3.5,4.1
		c-4.6,1.3-9.2,2.4-13.9,3c-0.6,0.1-1.2,0.2-1.9,0.3c-0.4,0.2-0.9-0.1-1.3,0.2c-0.3,0-0.7,0-1,0.1c-0.4,0.2-0.9-0.1-1.3,0.2
		c-0.5,0-1,0.1-1.5,0.1c-0.5,0.2-1.1-0.1-1.6,0.2c-0.7,0-1.3,0-2,0.1c-0.4,0.2-0.9,0.1-1.3,0.1c-0.5,0-1,0-1.5,0
		c-0.7,0.1-1.4-0.1-2.1,0.1c-2.4,0-4.8,0-7.3,0c-0.5-0.2-1-0.2-1.6,0c-0.6,0-1.2,0-1.8,0c-0.9-0.7-2-0.4-3-0.5
		c-6.7-1-12.9-3-18.2-7.2c-2.6-2.1-4.8-4.7-6.6-7.6c-2.4-4.1-3.7-8.5-4.7-13.1c-0.2-1.1-0.4-2.2-0.4-3.4c-0.2-0.4,0.1-0.9-0.2-1.3
		c0-0.5,0-1-0.1-1.5c-0.2-1,0.1-2.1-0.2-3.1c0-1.3,0-2.5,0-3.8c0.3-1.1,0-2.3,0.2-3.4c0-0.6,0-1.2,0.1-1.8c0.3-0.5,0-1.1,0.2-1.6
		c0-0.4,0.1-0.9,0.1-1.3c0.3-0.4,0-0.9,0.2-1.3c0.2-3.8,0.9-7.5,1.4-11.3c0.7-5.5,1.8-11,3.4-16.3c2.2-7.3,5.4-14.2,10.1-20.2
		c5.7-7.3,13.1-12.4,21.9-15.3c2-0.6,2.2-2.1,2.6-3.5c0.9-3,1.8-6,2.8-9c0.2-0.7,0.6-0.6,1.1-0.6c4.3,0,8.6,0,13,0
		c6.2,0,12.3,0,18.5,0c1.1,0,1.4,0.1,0.7,1.2c-1.7,2.8-3.2,5.7-4.8,8.6c-0.4,0.7-0.3,1,0.5,1.1c3.7,0.8,7.2,1.9,10.6,3.6
		c8.4,4.4,13.3,11.4,15.7,20.4c0.6,2.3,1,4.7,1.4,7c0.2,0.4-0.1,0.9,0.2,1.3c0,0.5,0,1,0.1,1.5c0.2,1-0.1,1.9,0.2,2.9
		c0,1.3,0,2.7,0,4c-0.3,1,0,2.1-0.2,3.2c0,0.6,0,1.2-0.1,1.8C595.9,572.9,596.2,573.4,596,573.9z"/>
	<path class="st0" d="M708.9,642.8c-1.1-0.7-2.3-0.4-3.4-0.5c-6.1-0.7-11.9-2.1-17.3-5.1c-4.3-2.4-7.8-5.8-10.1-10.3
		c-1.8-3.4-2.6-7-3-10.8c-0.2-0.6,0.1-1.3-0.2-1.9c0-1.3,0-2.7,0-4c0.3-0.7,0-1.4,0.2-2.1c0.2-4.5,1.1-8.9,2.7-13.2
		c1.5-3.9,3.4-7.5,6.1-10.7c6.7-8.2,15.6-12.6,25.5-15.4c5.7-1.6,11.6-2.7,17.5-3.2c0.7-0.1,1.4-0.2,2.2-0.3
		c0.5-0.2,1.1,0.1,1.6-0.2c0.6,0,1.2,0,1.8-0.1c0.8-0.2,1.6,0.1,2.4-0.2c1.2,0,2.4,0,3.6-0.1c1.6-0.3,3.2,0.1,4.8-0.2
		c0.7-4.3-1.7-7.5-5.5-8.9c-1.9-0.7-3.8-1-5.7-1.2c-0.8-0.3-1.6,0-2.4-0.2c-0.6,0-1.2,0-1.8,0c-1.1,0.2-2.3-0.1-3.4,0.2
		c-0.5,0-1,0-1.5,0.1c-0.4,0.2-0.9,0-1.4,0.2c-4.1,0.2-8.1,1-12.1,1.9c-3.7,0.8-7.4,1.8-11,2.9c-0.3,0.1-0.8,0.2-1,0.1
		c-0.2-0.2-0.1-0.7-0.1-1.1c0.4-2.1,0.6-4.3,0.9-6.5c0.3-2.2,0.6-4.3,0.9-6.5c0.3-2.2,0.6-4.3,0.9-6.5c0.3-2.2,0.6-4.3,0.9-6.5
		c0.1-0.4,0.2-0.8,0.1-1.1c-0.1-0.7,0.3-0.9,0.8-1.1c5.7-1.6,11.4-3.1,17.2-3.9c1.2-0.2,2.4-0.4,3.7-0.6c0.4-0.2,0.9,0.1,1.3-0.2
		c0.4,0,0.9,0,1.3-0.1c0.5-0.2,1.1,0.1,1.6-0.2c0.8,0,1.5,0,2.3-0.1c2.3-0.1,4.7-0.1,7,0c0.8,0,1.5,0,2.3,0.1c0.6,0.3,1.2,0,1.8,0.2
		c6,0.7,11.8,1.9,17.2,4.6c7.8,4,12.5,10.3,14.6,18.7c0.4,1.4,0.6,2.9,0.9,4.4c0.2,0.4-0.1,0.9,0.2,1.3c0,0.5,0,1,0.1,1.5
		c0.1,2.2,0.1,4.5,0,6.7c0,0.6-0.1,1.2-0.1,1.8c-0.3,0.5,0,1.1-0.2,1.6c-0.8,5.7-1.6,11.5-2.4,17.2c-0.7,5.1-1.6,10.3-2.3,15.4
		c-1.2,8.2-2.3,16.5-3.4,24.7c-0.5,3.7-1.1,7.3-1.5,11c-0.1,0.8-0.7,0.9-1.2,1.2c-4.8,2.2-9.8,3.5-14.9,4.5
		c-6.5,1.2-13.1,1.8-19.7,2.1c-0.5,0.2-1,0-1.6,0.1c-0.6,0-1.2,0-1.8,0c-0.9,0.1-1.8-0.2-2.6,0.1c-3,0-6,0-9.1,0
		c-0.6-0.2-1.2-0.2-1.8,0C710.3,642.8,709.6,642.8,708.9,642.8z"/>
	<path class="st0" d="M788.7,613.3c0-0.6,0-1.2-0.1-1.8c-0.1-1.9-0.1-3.8,0-5.7c0-0.7,0-1.4,0.1-2c0.3-0.5,0-1.1,0.2-1.6
		c0.4-3.1,0.6-6.3,1.1-9.4c0.6-3.4,1-6.8,1.5-10.2c0.5-3.4,1-6.8,1.4-10.2c0.3-2.7,0.9-5.4,1.3-8.1c0.3-2.2,0.5-4.3,0.8-6.5
		c0.3-2.1,0.7-4.1,1-6.2c0.3-2.2,0.6-4.3,0.9-6.5c0.4-2.3,0.7-4.6,1-6.8c0.4-2.7,0.7-5.4,1.1-8.1c0.2-1.6,0.2-3.2,0.7-4.7
		c9.6,0,19.2,0,28.9,0c0.4,0,1-0.3,1.2,0.4c-0.6,4.4-1.2,8.8-1.9,13.2c-0.7,4.6-1.4,9.3-2,13.9c-0.6,4-1,8-1.6,12
		c-0.6,4-1.2,8-1.8,12c-0.5,3.4-0.9,6.8-1.4,10.1c-0.5,3.4-1,6.8-1.5,10.2c-0.2,1.3-0.5,2.5-0.4,3.8c-0.2,0.8-0.2,1.6,0,2.4
		c0,5.4,3.5,9,9,10.1c1,0.2,1.9,0.4,2.9,0.3c2.2,0.2,4.4,0.2,6.5,0c0.9,0,1.9-0.1,2.8-0.1c0.6-0.2,1.2,0.1,1.8-0.2
		c0.5,0,1-0.1,1.6-0.1c0.4-0.2,0.9,0.1,1.3-0.2c1.2,0.2,2.3-0.3,3.5-0.3c0.6,0,0.9-0.4,1-1c0.3-3.6,1-7.2,1.5-10.8
		c0.6-4,1-8.1,1.6-12.1c0.6-4,1.2-8,1.8-11.9c0.5-3.4,0.8-6.8,1.3-10.2c0.5-3.4,1-6.7,1.5-10.1c0.3-2.2,0.5-4.3,0.8-6.5
		c0.3-2.1,0.6-4.1,1-6.2c0.2-1.6,0.4-3.2,0.6-4.8c0.3-2.1,0.6-4.2,0.9-6.2c0.2-1.7,0.4-3.3,0.7-5c0.2-0.9,0-1.9,0.5-2.7
		c9.6,0,19.2,0,28.9,0c0.4,0,1-0.3,1.2,0.4c-0.6,4.3-1.2,8.7-1.9,13c-0.6,4-1.2,8-1.8,12c-0.6,4-1,8-1.6,12c-0.6,4.6-1.4,9.2-2,13.8
		c-0.6,4-1,7.9-1.6,11.9c-0.6,4-1.2,8-1.7,12c-0.5,3.4-0.9,6.8-1.4,10.1c-0.4,3.3-0.9,6.5-1.4,9.8c-0.4,2.8-0.8,5.6-1.2,8.3
		c-0.3,2-0.6,4.1-0.8,6.1c-0.1,0.6-0.5,0.7-0.9,0.9c-4.7,2.4-9.8,3.6-14.9,4.6c-2.3,0.4-4.6,0.7-7,1.1c-0.4,0.2-0.9-0.1-1.3,0.2
		c-0.3,0-0.7,0-1,0.1c-0.4,0.2-0.9-0.1-1.3,0.2c-0.4,0-0.8,0-1.3,0.1c-0.5,0.2-1.1-0.1-1.6,0.2c-0.6,0-1.2,0.1-1.7,0.1
		c-0.7,0.2-1.4-0.1-2.1,0.2c-0.8,0-1.7,0-2.5,0.1c-0.5,0.2-1,0-1.6,0.1c-0.6,0-1.2,0-1.8,0c-0.9,0.1-1.8-0.2-2.6,0.1
		c-2.9,0-5.9,0-8.8,0c-0.6-0.2-1.2-0.2-1.8,0c-0.5,0-1,0-1.6,0c-1.6-0.6-3.3-0.5-4.9-0.8c-4.6-0.8-9.1-1.9-13.3-4
		c-8.3-4.2-13.1-11-15-20.1c-0.2-1.1-0.6-2.2-0.6-3.4C788.7,614.2,789,613.7,788.7,613.3z"/>
	<path class="st0" d="M998.3,602.2c0,0.8,0,1.6,0,2.4c0.2,0.4-0.1,0.9,0.2,1.4c0.1,4.7,3.6,8.1,7.5,8c1,0.2,1.9,0.2,2.9,0
		c3.8-0.1,7.3-1.3,10.8-2.4c1.7-0.5,3.4-1.1,5-1.7c0.9-0.4,0.9,0.1,0.8,0.6c-0.3,2.1-0.6,4.1-0.9,6.2c-0.5,3.4-1,6.7-1.4,10.1
		c-0.5,3.4-1.2,6.8-1.4,10.2c-0.1,2.3-1.3,2.9-3.2,3.5c-3.3,1-6.6,1.9-10.1,2.2c-0.2,0-0.3,0.1-0.4,0.3c-2.6,0-5.2,0-7.8,0
		c-0.5-0.2-1-0.2-1.6,0c-0.5,0-1,0-1.6,0c-0.9-0.7-2-0.4-3-0.5c-5.6-0.8-10.9-2.5-15.5-5.8c-3.9-2.8-6.7-6.7-8.5-11.2
		c-1.3-3.2-2.1-6.5-2.3-9.9c-0.2-0.4,0.1-0.9-0.2-1.4c0-0.8-0.1-1.7-0.1-2.5c-0.1-1.3-0.1-2.6,0-3.9c0-0.9,0-1.7,0.1-2.6
		c0.3-0.5,0-1.1,0.2-1.6c0.4-3.2,0.7-6.4,1.1-9.7c0.5-3.3,1.1-6.5,1.5-9.8c0.4-2.7,0.7-5.5,1.1-8.2c0.4-2.7,0.8-5.3,1.2-8
		c0.3-2.2,0.5-4.4,0.8-6.6c0.3-2,0.4-4,0.9-6c0.3-1.1-0.2-0.9-0.8-0.9c-4.5,0-9,0-13.5,0c-0.9,0-1.2-0.1-1-1.2
		c0.5-2.1,0.6-4.2,0.9-6.4c0.3-2.2,0.6-4.4,1-6.6c0.3-2.2,0.6-4.3,0.8-6.5c0.3-2.1,0.5-4.2,1-6.3c0.1-0.6-0.2-1.3,0.3-1.8
		c4.7-0.1,9.4,0,14.1-0.1c0.5,0,0.9,0.1,1.4-0.1c0.3-2.9,0.8-5.7,1.1-8.6c0.3-3.3,1-6.5,1.5-9.8c0.4-2.7,0.7-5.5,1.1-8.2
		c0.1-1.1,0.5-1.8,1.8-2.1c9.5-2.1,19-4.2,28.5-6.5c1.1-0.3,1.1,0.2,1,0.9c-0.6,3.9-1.2,7.8-1.8,11.8c-0.5,3.4-0.9,6.8-1.3,10.1
		c-0.5,3.4-1,6.8-1.5,10.2c-0.1,0.5,0,1.1-0.1,1.7c-0.2,0.3-0.1,0.6,0.3,0.6c0.3,0.1,0.7,0,1,0c8.5,0,17,0,25.5,0
		c0.5,0,0.9-0.2,1.4,0.2c-0.3,2.2-0.7,4.5-1,6.7c-0.5,3.5-1,6.9-1.5,10.4c-0.5,3.4-1,6.8-1.3,10.1c-0.1,1.1-0.4,1.5-1.6,1.5
		c-8.6-0.1-17.3,0-25.9-0.1c-0.9,0-1.2,0.2-1.3,1.2c-0.7,5.2-1.5,10.4-2.2,15.6c-0.6,3.9-1,7.9-1.6,11.8c-0.6,4-1.2,7.9-1.7,11.9
		c-0.2,1.9-0.7,3.7-0.6,5.6C998.3,600.9,998.6,601.6,998.3,602.2z"/>
	<path class="st0" d="M896,642.8c0.3-2.2,0.7-4.4,1-6.6c0.3-2.2,0.6-4.4,0.9-6.6c0.3-2.1,0.7-4.2,1-6.3c0.3-2.2,0.6-4.4,0.9-6.6
		c0.3-2,0.6-4.1,0.9-6.1c0.3-2.2,0.7-4.4,1-6.6c0.3-2.2,0.6-4.4,1-6.6c0.3-2.1,0.6-4.3,0.9-6.4c0.3-2.2,0.6-4.4,0.9-6.6
		c0.3-2,0.5-4.1,0.8-6.1c0.3-2.1,0.6-4.2,0.9-6.4c0.3-2.2,0.6-4.4,0.9-6.6c0.3-2.1,0.6-4.2,0.9-6.4c0.3-2.3,0.6-4.5,0.9-6.8
		c0.3-2.1,0.6-4.1,0.9-6.2c0.3-2.2,0.6-4.4,0.9-6.6c0.3-2.1,0.6-4.2,0.9-6.2c0.3-2.2,0.7-4.3,1-6.5c0.3-2.2,0.6-4.5,0.9-6.7
		c0.5-2.7,0.7-5.5,1.1-8.3c0.4-2.8,0.8-5.6,1.2-8.3c0.3-1.9,0.6-3.7,0.8-5.6c0.1-0.8,0.5-0.9,1-1c5.8-1.3,11.6-2.6,17.4-3.9
		c4.1-0.9,8.2-1.9,12.3-2.8c0.2,0,0.3,0,0.6,0c-0.8,5.2-1.5,10.3-2.3,15.4c-0.6,4.6-1.2,9.2-1.8,13.8c-0.6,4.6-1.4,9.1-2,13.6
		c-0.6,4-1,8-1.6,11.9c-0.6,4-1.2,8-1.8,12c-0.5,3.3-0.9,6.7-1.4,10c-0.6,4-1.2,8-1.8,12c-0.6,4-1,7.9-1.6,11.9
		c-0.6,4-1.2,7.9-1.8,11.9c-0.5,3.3-0.9,6.7-1.4,10c-0.5,3.4-1,6.7-1.5,10.1c-0.4,2.7-0.7,5.5-1.1,8.2c-0.5,3.4-1,6.7-1.5,10.1
		c-0.1,0.6-0.1,1.2-0.1,1.8C916.2,642.8,906.1,642.8,896,642.8z"/>
	<path class="st0" d="M655.9,525.6c1.4,0,2.9-0.1,4.3-0.1c3-0.1,6-0.1,9,0c0.7,0,1.4,0.1,2.1,0.1c0.5,0.3,1.1,0,1.6,0.2
		c1.6,0.2,3.1,0.4,4.7,0.6c0.6,0.1,0.8,0.3,0.7,0.9c-0.9,6.1-1.7,12.1-2.6,18.2c-0.5,3.4-1,6.7-1.5,10.1c-0.1,0.7-0.2,0.8-0.9,0.6
		c-2.7-0.7-5.5-1.4-8.3-1.6c-0.6-0.3-1.3,0-1.9-0.2c-0.7,0-1.4,0-2.1,0c-1.5,0.2-3-0.1-4.4,0.2c-0.8,0-1.5,0.1-2.3,0.1
		c-0.5,0.2-1.1-0.1-1.6,0.2c-0.4,0-0.8,0-1.3,0.1c-0.4,0.2-0.9-0.1-1.3,0.2c-1-0.1-1.9,0.3-2.9,0.3c-0.7,0-0.9,0.5-0.9,1
		c-0.5,4-1,7.9-1.6,11.9c-0.6,4.6-1.4,9.1-2,13.7c-0.7,4.6-1.2,9.2-1.8,13.8c-0.6,4.6-1.4,9.2-2,13.8c-0.6,4-1,7.9-1.6,11.9
		c-0.7,4.6-1.4,9.2-2,13.8c-0.4,2.5-0.7,5.1-1.1,7.6c-10,0-20,0-30.1,0c0.4-3.2,0.8-6.3,1.3-9.5c0.5-3.4,0.8-6.8,1.3-10.2
		c0.5-3.3,1.1-6.6,1.5-9.9c0.4-2.8,0.7-5.6,1.1-8.4c0.4-2.8,0.9-5.5,1.3-8.3c0.3-2.1,0.5-4.2,0.8-6.3c0.3-2.1,0.6-4.1,0.9-6.2
		c0.3-2.2,0.6-4.3,0.9-6.5c0.3-2.1,0.6-4.2,0.9-6.4c0.3-2.2,0.6-4.4,0.9-6.6c0.3-2.2,0.6-4.3,0.9-6.5c0.3-2.2,0.6-4.3,0.9-6.5
		c0.3-2.1,0.6-4.2,0.9-6.3c0.3-2.2,0.6-4.5,0.9-6.7c0.3-2,0.7-4,0.8-6c0-0.5,0.7-0.7,1.1-0.9c5.4-2,11-3.4,16.7-4.2
		c1.9-0.3,3.8-0.5,5.7-0.8c0.4-0.2,0.9,0,1.4-0.2c0.5,0,1-0.1,1.5-0.1c0.4-0.1,0.9,0.1,1.4-0.2c0.6,0,1.2-0.1,1.7-0.1
		c0.6-0.2,1.3,0.1,1.9-0.2c0.8,0,1.5-0.1,2.3-0.1C653.9,525.5,654.9,525.8,655.9,525.6z"/>
	<path class="st1" d="M462.9,547.3c4.5-2.2,9-4.5,13.5-6.7c1.7-0.8,3-1.9,4.1-3.4c0.8-1,1.8-2,2.7-2.9c0.6,0.1,0.4,0.5,0.3,0.8
		c-0.6,4.3-1.3,8.7-1.9,13c-0.4,3.2-0.9,6.3-1.3,9.5c-0.2,1.1-1,1.8-1.6,2.6c-3.7,5-7.8,9.8-12.5,14.1c-5.2,4.8-10.9,9.2-16.8,13.2
		c-7.6,5.2-15.4,10.1-23.6,14.3c-2.6,1.3-5.3,2.4-7.9,3.6c-0.2,0.1-0.5,0.3-0.7,0.1c-0.2-0.2-0.2-0.5-0.1-0.7c0.5-2.1,0.7-4.2,1-6.3
		c-0.4-0.2-0.8-0.1-1.3-0.1c-8.5,0-17,0-25.5,0c-0.5,0-1.1-0.3-1.4,0.4c-0.6,4.4-1.3,8.8-1.9,13.2c-0.1,0.8-0.3,1.3-1.2,1.5
		c-10,2.4-19.3,6.7-28.1,11.9c-7,4.1-13.7,8.6-20.1,13.5c-1.6,1.2-3.1,2.6-4.6,3.9c-2.2,0-4.5,0-6.7,0c0.2-2.4,0.6-4.8,1-7.3
		c0.4-2.8,0.7-5.5,1.1-8.3c0.3-2,0.6-4.1,0.9-6.1c0.3-2.2,0.7-4.3,1-6.5c0.4-2.9,0.7-5.8,1.2-8.6c0.1-0.7,0.2-1.4,0.2-2
		c0-1.4,0.9-1.1,1.6-1c0.6,0.1,1.1,0.6,1.5,1.2c1.7,2.5,3.5,5.1,5.2,7.6c1.1,1.5,2.8,2.3,4.3,3.5c0.5,0.5,1-0.2,1.4-0.5
		c2.7-2.4,5.2-5.1,8.1-7.3c2.4-1.8,5.1-3.4,7.5-5.3c2.4-1.9,5.2-3.3,7.7-5.1c3.8-2.7,8.2-4,12.4-5.8c2.3-1,4.8-1,7.2-1.5
		c0.9-0.2,1.6,0.1,2.1,0.8c1.4,2.2,3.9,2,6,2.5c3.7,0.8,7.4,1.5,11.1,2.3c0.4,0.1,0.7,0.1,1.1-0.1c1.8-0.9,3.3-2.2,4.4-4
		c2.9-4.9,6.3-9.3,9.9-13.7c2.1-2.6,4.5-4.9,6.8-7.4c2-2.1,3.8-4.4,5.8-6.5c1.2-1.3,2.5-2.4,3.9-3.5c1.6-1.2,2.9-2.8,4.7-3.8
		c0.9-0.5,1.9-0.9,2.9-0.7c3.8,0.6,7.1-1,10.5-2.3c0.9-0.3,1.8-0.8,2.8-1c1.1-0.3,1.5-0.9,1.3-1.9
		C462.8,549.5,462.9,548.4,462.9,547.3z"/>
	<path class="st1" d="M412,642.8c0.4-3.8,1-7.6,1.6-11.4c0.5-3.3,0.8-6.7,1.3-10c0.5-3.3,1.3-6.5,1.4-9.8c0.1-1.8,1.2-2,2.2-2.4
		c7.3-2.8,14-6.6,20.7-10.7c4.1-2.5,8.2-5.1,12.2-7.9c3.6-2.5,7.2-5.1,10.6-7.9c4.1-3.3,7.9-6.8,11.5-10.5c1.5-1.6,3.2-3.2,4.4-5.1
		c0.2-0.3,0.5-0.7,1.1-0.9c-0.2,1.6-0.4,3.1-0.6,4.5c-0.5,3.4-1,6.8-1.5,10.3c-0.5,3.4-1,6.8-1.5,10.3c-0.5,3.3-0.9,6.7-1.4,10
		c-0.2,1.3-0.3,2.6-0.6,3.9c-0.2,0.8-0.9,1.2-1.5,1.7c-8.2,8-17.9,13.6-28.2,18.5c-7.5,3.6-14.7,7.8-21.2,13.1
		c-1.6,1.3-3.3,2.4-4.6,4.1C416.1,642.8,414,642.8,412,642.8z"/>
	<path class="st1" d="M423.9,642.8c1.2-1.5,2.9-2.5,4.4-3.6c6.7-5,14.2-8.7,21.7-12.4c5.7-2.8,11.1-6.1,16.2-9.7
		c2.2-1.5,4.1-3.4,6.2-5.1c0.5,0.3,0.3,0.8,0.2,1.2c-0.8,5.5-1.5,10.9-2.3,16.4c-0.6,4-1.2,8-1.7,12c-0.1,0.4,0,0.9-0.1,1.3
		C453.6,642.8,438.7,642.8,423.9,642.8z"/>
	<path class="st1" d="M339.9,642.8c1.7-1.7,3.7-3.1,5.6-4.4c3.9-2.8,7.9-5.4,12-7.9c8.8-5.4,18-9.9,28-12.7c0.2,0,0.3,0,0.5-0.1
		c0.8-0.3,1.3-0.4,1.1,0.9c-1.1,7.2-2.1,14.4-3.1,21.6c-0.1,0.9-0.2,1.8-0.3,2.7C369.1,642.8,354.5,642.8,339.9,642.8z"/>
	<path class="st0" d="M237.9,636.1c3-4.6,5.9-9.2,8.9-13.8c0.6-1,1.2-2,2-2.8c2.2-2.1,6.3-0.9,7.3,1.9c0.5,1.5,0.2,2.9-0.6,4.1
		c-3.1,4.8-6.2,9.6-9.3,14.4c-0.7,1.1-1.7,1.7-2.8,2.1c-0.7,0.1-1.4,0.1-2.1,0c-1.7-0.3-2.7-1.5-3.4-2.9
		C237.9,638.2,237.9,637.1,237.9,636.1z"/>
	<path class="st2" d="M721.8,642.8c0.8-0.5,1.7-0.2,2.6-0.2c0.1,0.1,0.1,0.1,0.1,0.2c0,0-0.1,0.1-0.1,0.1
		C723.6,642.8,722.7,642.8,721.8,642.8z"/>
	<path class="st3" d="M834.8,642.8c0.8-0.5,1.7-0.2,2.6-0.2c0.1,0.1,0.1,0.1,0.1,0.2c0,0-0.1,0.1-0.1,0.1
		C836.5,642.8,835.7,642.8,834.8,642.8z"/>
	<path class="st4" d="M540.5,642.8c0.7-0.5,1.4-0.2,2.1-0.2c0.1,0.1,0.1,0.1,0.1,0.2c0,0-0.1,0.1-0.1,0.1
		C541.9,642.8,541.2,642.8,540.5,642.8z"/>
	<path class="st5" d="M837.4,642.8c0-0.1,0-0.2,0-0.2c0.6,0,1.2,0,1.8,0c0.1,0.1,0.1,0.1,0.1,0.2c0,0-0.1,0.1-0.1,0.1
		C838.6,642.8,838,642.8,837.4,642.8z"/>
	<path class="st6" d="M824.2,642.8c0.6-0.4,1.2-0.4,1.8,0C825.4,642.8,824.8,642.8,824.2,642.8z"/>
	<path class="st7" d="M724.4,642.8c0-0.1,0-0.1,0-0.2c0.6,0,1.2,0,1.8,0c0.1,0.1,0.1,0.1,0.1,0.1c0,0-0.1,0.1-0.1,0.1
		C725.6,642.8,725,642.8,724.4,642.8z"/>
	<path class="st8" d="M711,642.8c0.6-0.4,1.2-0.4,1.8,0C712.2,642.8,711.6,642.8,711,642.8z"/>
	<path class="st2" d="M531.7,642.8c0.5-0.4,1-0.4,1.6,0C532.7,642.8,532.2,642.8,531.7,642.8z"/>
	<path class="st7" d="M542.6,642.8c0-0.1,0-0.1,0-0.2c0.5,0,1,0,1.5,0c0.1,0.1,0.1,0.1,0.1,0.2c0,0-0.1,0.1-0.1,0.1
		C543.6,642.8,543.1,642.8,542.6,642.8z"/>
	<path class="st9" d="M726.2,642.8c0-0.1,0-0.1,0-0.2c0.5,0,1,0,1.5,0c0,0.1,0,0.1,0,0.2C727.3,642.8,726.8,642.8,726.2,642.8z"/>
	<path class="st10" d="M839.2,642.8c0-0.1,0-0.1,0-0.2c0.5,0,1,0,1.5,0c0,0.1,0,0.1,0,0.2C840.3,642.8,839.7,642.8,839.2,642.8z"/>
	<path class="st11" d="M998.8,642.8c0.5-0.4,1-0.4,1.6,0C999.9,642.8,999.3,642.8,998.8,642.8z"/>
	<path class="st10" d="M544.1,642.8c0-0.1,0-0.2,0-0.2c0.4,0,0.9,0,1.3,0c0,0.1,0,0.1,0,0.2C545,642.8,544.5,642.8,544.1,642.8z"/>
	<path class="st0" d="M370.5,520.1c0.1-1.8,0.1-3.6,0-5.5c-0.2-0.5,0.1-1.1-0.2-1.6c-0.4-4.2-1.3-8.3-2.7-12.3
		c-2-5.5-4.8-10.5-8.5-15.1c-2.3-2.8-4.8-5.4-7.7-7.6c-1.1-0.9-0.8-1.8-0.7-2.7c0.3-2.2,0.7-4.3,1-6.5c0.3-2.3,0.5-4.6,0.9-6.8
		c0.2-1.1,0.3-2.3,0.6-3.4c0.4-0.1,0.8-0.1,1.2-0.1c17.9,0,35.9,0,53.8,0c0.8,0,1.7-0.2,1.3,1.2c-0.4,3-0.9,6.1-1.3,9.1
		c-0.5,3.5-1,6.9-1.5,10.4c-0.5,3.3-0.9,6.7-1.4,10c-0.5,3.5-1,7-1.5,10.5c-0.5,3.3-0.9,6.7-1.4,10c-0.6,4-1.2,8.1-1.7,12.1
		c-0.3,2.5-0.9,5-0.9,7.5c-0.2,0.5,0,0.7,0.5,0.7c0.5,0,1,0,1.5,0c8.2,0,16.3,0,24.5,0c0.5,0,0.9,0.1,1.4-0.1
		c0.4-2.9,0.9-5.8,1.3-8.7c0.4-2.8,0.7-5.7,1.1-8.5c0.5-3.4,1.1-6.8,1.5-10.2c0.4-2.8,0.6-5.6,1-8.4c0.4-2.7,0.9-5.4,1.3-8.1
		c0.4-2.8,0.7-5.7,1.1-8.5c0.4-2.8,0.9-5.6,1.3-8.3c0.3-2.2,0.5-4.3,0.8-6.5c0.1-1.1,0.3-2.1,0.5-3.2c0.1-0.7,0.4-0.9,1.2-0.9
		c18.1,0,36.2,0,54.3,0c0.6,0,1.3-0.1,1,0.9c-0.5,3-0.9,6.1-1.3,9.1c-0.5,3.4-1,6.8-1.5,10.2c-0.5,3.3-0.9,6.6-1.4,9.9
		c-0.5,3.5-1,7-1.5,10.5c-0.5,3.3-0.9,6.6-1.4,9.9c-0.5,3.5-1,6.9-1.5,10.4c-0.3,2.1-0.6,4.2-0.8,6.3c-0.1,0.5-0.1,0.9-0.5,1.3
		c-2.4,3-5,5.9-7.5,8.8c-0.4,0.5-0.9,0.8-1.4,1c-5.1,2.5-10.2,5-15.2,7.5c-0.4,0.2-0.8,0.3-1,0.7c-0.2,0.6-0.2,1.1,0,1.7
		c-0.1,2.6-0.1,2.6-2.6,3.6c-1.4,0.5-2.8,1.1-4.1,1.6c-1.3,0.1-2.6,0.1-3.9,0c-2.4-0.4-4.4,0.8-6.1,2.1c-2.6,2-5.1,4.2-7.5,6.5
		c-2.2,2.1-4.1,4.4-6.1,6.6c-2.3,2.5-4.5,4.9-6.7,7.5c-4.2,4.8-7.8,9.9-11.3,15.3c-1.1,1.7-1.5,1.7-3.3,1.3
		c-3.7-0.7-7.4-1.6-11.1-2.3c-1.1-0.2-1.9-0.6-2.4-1.4c-1.2-1.7-3-1.8-4.8-1.7c-5.7,0.5-10.8,2.8-16,5.1c-5.2,2.3-9.6,5.8-14.3,9
		c-4.4,3-8.8,6.2-12.5,10c-1,1.1-1.6,0.5-2.1-0.3c-1.8-2.6-3.8-5.2-5.5-7.9c-1-1.6-2.5-2.4-4-2.6c-1.7-0.2-1.3-1.2-1.2-2
		c0.5-2.9,0.9-5.9,1.3-8.8c0.3-2.7,0.9-5.5,1.2-8.2c0.4-2.7,0.7-5.5,1.1-8.3c0.3-2.2,0.7-4.5,1-6.7c0.1-0.5,0.2-0.7,0.7-0.9
		c4-1.7,7.7-3.8,11.2-6.3c2.4-1.7,4.5-3.8,6.6-5.9c4.6-4.7,8-10.2,10.4-16.3c1.3-3.3,2.2-6.8,2.8-10.3c0.2-1.2,0.4-2.3,0.5-3.5
		C370.5,521.4,370.3,520.7,370.5,520.1z"/>
	<path class="st0" d="M273.6,518.8c0-0.8,0-1.7,0-2.5c0.3-0.9,0-1.8,0.2-2.6c0.3-5.3,1.7-10.4,3.8-15.2c1.8-4.1,4.3-7.7,7.2-11.1
		c4.3-5.1,9.4-8.9,15.4-11.7c4.2-2,8.7-3.3,13.3-3.9c0.6-0.1,1.2-0.2,1.8-0.3c0.6-0.2,1.2,0.1,1.8-0.2c2,0,3.9,0,5.9,0
		c0.5,0.2,1.1,0,1.6,0.2c8.8,1,16.8,4.1,23.8,9.6c8.9,7,14.6,16,16.9,27.1c0.3,1.5,0.6,3,0.8,4.5c0.2,0.5-0.1,1.1,0.2,1.6
		c0,2.2,0,4.4,0,6.6c-0.2,0.4,0,0.9-0.2,1.4c-1.1,9.6-4.7,18.1-11,25.4c-3.4,3.9-7.3,7.2-11.8,9.8c-5.3,3.1-10.9,5-16.9,5.9
		c-0.9,0.1-1.8,0.2-2.6,0.3c-0.7,0.2-1.4-0.1-2.1,0.2c-1.2,0-2.4,0-3.5,0c-0.7-0.3-1.4,0-2.1-0.2c-4.7-0.3-9.2-1.4-13.5-3.2
		c-4.2-1.7-8-3.9-11.5-6.8c-1.4-1.2-2.9-2.3-4.1-3.6c-3.6-3.7-6.7-7.9-8.9-12.6c-2-4.2-3.4-8.5-4-13.1c-0.1-1-0.1-2-0.3-3
		C273.6,520.5,273.9,519.6,273.6,518.8z"/>
	<path class="st0" d="M818.7,458.5c-2.3,0-4.6,0-6.9,0c-0.6-0.3-1.2,0-1.9-0.2c-3.2-0.2-6.4-0.8-9.5-1.9c-3.1-1.2-5.9-2.6-8.4-4.9
		c-1-0.9-1.8-2-2.9-2.9c2.1-1.9,4.2-3.7,6.4-5.6c1.1-0.9,2.2-1.9,3.2-2.9c1.2-1.2,1.4-1.2,2.6-0.1c2.8,2.7,6.2,4,9.9,4.8
		c1.1,0.2,2.2,0.4,3.3,0.3c1,0.3,2,0,2.9,0.2c0.2,0,0.4,0,0.5,0c0.9-0.2,1.8,0.1,2.6-0.2c4.8-0.3,8.9-2,11-6.5
		c1.5-3.1,1.4-7.2-1.5-9.5c-1.5-1.2-3.3-1.5-5.1-1.9c-4.3-0.8-8.7-1.1-13.1-2.1c-3.6-0.8-6.9-2.3-9.6-4.9c-2-2-3.2-4.6-3.8-7.4
		c-0.5-2.2-0.2-4.4-0.3-6.5c0.3-0.4,0-0.9,0.2-1.3c0.4-4.2,1.9-8.1,4.3-11.5c3.9-5.7,9.4-9,16-10.7c1.5-0.4,3.1-0.6,4.7-0.9
		c0.4-0.2,0.9,0,1.4-0.2c2.5,0,4.9,0,7.4,0c0.5,0.3,1.1,0,1.6,0.2c4.9,0.7,9.7,2,13.8,5c1.2,0.9,2.3,1.9,3.4,3
		c0.4,0.4,0.4,0.6-0.1,1.1c-3,2.6-6,5.2-9,7.9c-0.7,0.6-1.1,0.8-2.1,0c-2.7-2.3-5.9-3.7-9.5-4c-0.4-0.3-0.9,0-1.3-0.2
		c-3.7-0.3-7.3-0.1-10.6,1.7c-3,1.7-4.9,4.2-5.3,7.8c-0.2,0.7-0.2,1.4,0,2.2c0,2.1,1.3,3.4,3,4.4c2.1,1.3,4.5,1.6,6.8,2
		c5.3,0.8,10.7,1,15.7,3.4c5,2.3,7.8,6.3,8.5,11.8c0.3,2,0.1,4,0.2,6c-0.3,0.4,0,0.9-0.2,1.3c-0.6,4-1.9,7.7-4.2,11
		c-3.7,5.3-8.8,8.5-14.9,10.5c-2.5,0.8-5.1,1.2-7.6,1.6C819.8,458.5,819.2,458.2,818.7,458.5z"/>
	<path class="st0" d="M890.5,402c2,0.5,3.9,0.9,5.8,1.8c4.4,2.1,6.4,5.8,7.2,10.4c0.1,0.8,0.2,1.6,0.3,2.4c0.1,1.5,0.1,2.9,0,4.4
		c0,0.7-0.1,1.3-0.1,2c-0.2,0.4,0,0.9-0.2,1.4c-0.9,5.7-1.4,11.5-2.9,17.1c-1.1,3.9-2.6,7.7-5.4,10.7c-3.3,3.6-7.5,5.4-12.2,6.2
		c-0.4,0.2-0.9-0.1-1.3,0.2c-2.3,0-4.6,0.2-6.9-0.4c-3-0.7-5.7-2.1-7.8-5c-0.3,2-0.6,3.7-0.8,5.4c-0.5,3.5-1,6.9-1.5,10.4
		c-0.4,2.7-0.8,5.4-1.1,8.1c-0.1,0.7-0.3,1.1-1.1,1.1c-4,0-8,0-12,0c-1.3,0-0.9-1-0.8-1.5c0.6-3.6,1.1-7.1,1.5-10.7
		c0.3-2.8,0.9-5.5,1.3-8.3c0.5-3.4,0.8-6.8,1.3-10.1c0.4-2.7,0.9-5.3,1.3-8c0.4-2.8,0.7-5.6,1.1-8.4c0.4-2.7,0.9-5.4,1.3-8.1
		c0.3-2.2,0.5-4.4,0.8-6.6c0.3-2.1,0.7-4.1,1-6.2c0.3-2.1,0.7-4.2,0.9-6.4c0-0.4,0.2-0.8,0.2-1.2c0.2-0.2,0.5-0.2,0.7-0.2
		c3.9,0,7.9,0,11.8,0c0.3,0,0.8-0.2,0.9,0.4c-0.3,1.4-0.5,2.9-0.9,4.8c3.4-3.3,7.1-5,11.4-5.6c0.5-0.2,1.1,0.1,1.6-0.2
		c1.1,0,2.2,0,3.3,0C889.6,402.1,890.1,401.8,890.5,402z"/>
	<path class="st0" d="M932.2,458.5c-1.6,0-3.2,0-4.9,0c-0.4-0.3-0.9,0-1.3-0.2c-3.7-0.5-7.2-1.6-10.1-4.1c-3.3-2.9-5.5-6.5-6-11
		c-0.2-0.4,0.1-0.9-0.2-1.3c0-0.8,0-1.5-0.1-2.3c-0.1-0.4-0.1-0.9,0-1.3c0-0.9,0-1.9,0.1-2.8c0.3-0.5,0-1.1,0.2-1.6
		c0-0.3,0-0.7,0.1-1c0.3-0.4,0-0.9,0.2-1.3c0.4-4.1,1.2-8.1,2.4-12c1.5-4.7,4.2-8.6,7.9-11.8c4-3.4,8.7-5.1,13.9-5.8
		c0.5-0.2,1.1,0.1,1.6-0.2c1.2,0,2.5,0,3.7,0c0.4,0.2,0.9,0,1.4,0.2c4.6,0.7,8.8,2.2,12.1,5.6c2.5,2.6,4,5.7,4.5,9.3
		c0.1,0.5,0.2,1,0.3,1.5c0.2,0.8-0.1,1.6,0.2,2.4c0,0.4,0,0.8,0,1.2c-0.3,0.9,0,1.9-0.2,2.9c0,0.5-0.1,1-0.1,1.5
		c-0.3,0.4,0,0.9-0.2,1.3c-0.7,4.1-1.1,8.2-2.4,12.1c-3.2,10-9.8,16.1-20.1,18.2c-0.5,0.1-1.1,0.2-1.6,0.3
		C933.1,458.5,932.6,458.2,932.2,458.5z"/>
	<path class="st0" d="M1036.6,387.9c-0.6,1.9-0.6,4-1,6c-0.5,3-0.9,5.9-1.3,8.9c0,0.3,0,0.7,0,1c2.6,0.3,5.3,0,7.9,0.1
		c0.5,0,1.1-0.1,1.6,0.1c-0.4,3.3-0.9,6.7-1.3,10c-0.1,0.7-0.6,0.5-1,0.5c-2.6,0-5.3,0.1-7.9,0c-0.9,0-1.1,0.4-1.2,1.1
		c-0.6,4.6-1.2,9.1-1.8,13.7c-0.5,3.9-1.3,7.7-1.6,11.7c-0.2,0.8-0.2,1.6,0,2.4c0,1.5,1.6,2.5,3,2.6c1.6,0.1,3.3,0.1,4.9,0
		c0.9,0,1,0.3,0.9,1.1c-0.4,2.7-0.8,5.4-1.2,8.1c-0.1,0.6-0.1,1.3-0.1,1.9c-0.1,0.4-0.3,0.7-0.8,0.7c-3.1-0.1-6.2,0.1-9.2-0.1
		c-3-0.2-5.8-1.2-8-3.3c-2.4-2.3-3.5-5.3-3.7-8.7c-0.1-0.8-0.1-1.5,0-2.3c0.3-4,1-7.9,1.6-11.9c0.4-2.8,0.7-5.6,1-8.4
		c0.4-2.6,0.8-5.2,1.2-7.8c0.1-0.7-0.2-0.7-0.7-0.7c-1.2,0-2.3,0-3.5,0c-1.5,0-1.8-0.3-1.5-1.8c0.6-2.8,0.9-5.6,1.3-8.4
		c0.2-0.6,0.7-0.4,1.2-0.5c1.6-0.1,3.1,0.2,4.7-0.1c0.5-3.6,1.1-7.1,1.6-10.7c0.2-1.8,0.4-3.5,0.8-5.3c0.4-0.3,0.9-0.1,1.4-0.1
		c3.8,0,7.6,0,11.4,0C1035.9,387.7,1036.3,387.5,1036.6,387.9z"/>
	<path class="st0" d="M984.1,403.6c-0.2,0.9-0.4,1.8-0.3,2.8c-0.1,0.3-0.3,0.7,0.4,0.6c3.2-2.9,7.1-4.3,11.3-5
		c0.4-0.2,0.9,0.1,1.3-0.2c1.1,0,2.2,0,3.3,0c0.4,0.2,0.9,0,1.4,0.2c3.3,0.6,6.1,1.9,8.5,4.3c0.5,0.5,0.7,0.8,0,1.4
		c-3.7,3.2-7.3,6.4-10.9,9.6c-0.6,0.6-0.8,0-1.1-0.3c-1.3-1.6-3-2.3-5-2.6c-0.6-0.2-1.3-0.2-1.9,0c-3.6,0.1-7.3,3-8.7,6.8
		c-1,2.6-1.1,5.4-1.5,8.1c-0.5,3.4-1,6.9-1.5,10.4c-0.5,3.3-1,6.5-1.4,9.8c-0.3,2.7-0.9,5.4-1.1,8.1c-0.1,0.1-0.3,0.2-0.5,0.2
		c-4.3,0-8.7,0-13,0c-0.2,0-0.3,0-0.5-0.2c0.3-2.4,0.7-4.8,1-7.2c0.3-2.1,0.5-4.2,0.8-6.2c0.3-2.1,0.6-4.1,0.9-6.2
		c0.3-2.2,0.6-4.3,0.9-6.5c0.3-2.2,0.6-4.4,0.9-6.6c0.3-2,0.6-4.1,0.8-6.1c0.3-2.2,0.6-4.3,0.9-6.5c0.3-2.2,0.6-4.5,0.9-6.7
		c0.1-1,0.3-2,0.5-3c0.3-0.3,0.6-0.2,1-0.2c3.8,0,7.7,0,11.5,0C984,402.4,984.4,402.6,984.1,403.6z"/>
	<path class="st0" d="M306.8,582.8c-4.4-0.3-8.6-1.2-12.7-2.7c-5.4-1.9-10.4-4.7-14.9-8.3c-5.3-4.1-9.4-9.1-12.6-14.8
		c-2.6-4.6-4.5-9.5-5.3-14.7c-0.4-2.5,1.1-4.6,3.5-5.1c2.4-0.5,4.8,1.1,5.3,3.5c1.3,6.3,3.9,12.1,7.9,17.1
		c4.8,6,10.7,10.5,17.9,13.3c3.5,1.3,7.1,2.4,10.9,2.5c0.6,0.3,1.2,0,1.8,0.2c1.6,0.1,3.1,0.1,4.7,0c0.6-0.2,1.2,0.1,1.8-0.2
		c1.4,0.1,2.8-0.3,4.1-0.6c0.8-0.1,1.5-0.1,2.3,0c2.8,1.3,3.8,3.1,3.1,5.7c-0.5,1.8-1.8,2.7-3.6,3.1c-1.1,0.2-2.3,0.4-3.4,0.6
		c-0.4,0.2-0.9-0.1-1.3,0.2c-0.4,0-0.9,0-1.3,0.1c-0.8,0.2-1.6-0.1-2.4,0.2c-1.2,0-2.4,0-3.6,0C308.4,582.7,307.6,583,306.8,582.8z"
		/>
	<path class="st0" d="M295.4,596.2c-1.2,3.5-3.9,4.1-6.9,3.3c-4.2-1.2-8.4-2.5-12.2-4.6c-2.9-1.6-5.7-3.3-8.2-5.5
		c-1.6-1.4-3.3-2.7-4.8-4.2c-1.8-1.9-3.5-3.9-5-6.1c-1.9-2.7-0.9-6.3,2.4-7.3c0.8-0.1,1.5-0.1,2.3,0c1.3,0.5,2.2,1.4,3,2.5
		c6.4,8.7,14.8,14.2,25.4,16.5c2,0.4,3.3,1.5,4,3.4C295.6,594.8,295.5,595.5,295.4,596.2z"/>
	<path class="st0" d="M270.2,614.4c-2.7-0.7-5-2.1-7.4-3.5c-3.4-2-6.6-4.3-9.3-7.2c-2.7-2.8-1.8-6.6,1.9-7.7c0.7-0.1,1.4-0.1,2.1,0
		c2.2,0.7,3.5,2.5,5.1,3.8c3.1,2.5,6.5,4.4,10.1,6c2,0.9,3.2,2.4,3.2,4.2c0,1.9-1.3,3.6-3.3,4.4C271.8,614.5,271,614.5,270.2,614.4z
		"/>
	<path class="st12" d="M494.2,459.5c0-0.4,0-0.9-0.6-0.8c-0.3,0-0.5,0-0.8,0c-17.9,0-35.7,0-53.6,0c-0.7,0-1.4-0.2-1.5,0.8
		c-0.2-1,0.5-1.1,1.3-1.1c6.3,0,12.6,0,18.9,0c11.7,0,23.5,0,35.2,0C493.6,458.5,494.7,458.1,494.2,459.5z"/>
	<path class="st12" d="M409.4,459.8c0.2-1.1-0.5-1.1-1.3-1.1c-17.8,0-35.6,0-53.4,0c-0.5,0-1,0-1.6,0c0.4-0.3,0.8-0.2,1.2-0.2
		c18,0,35.9,0,53.9,0C409.2,458.5,410.1,458.4,409.4,459.8z"/>
	<path class="st12" d="M891.9,525.8c-0.3-0.6-0.9-0.4-1.4-0.4c-9.6,0-19.1,0-28.7,0c0.4-0.2,0.8-0.1,1.1-0.1c9.3,0,18.6,0,27.9,0
		C891.2,525.3,891.9,524.9,891.9,525.8z"/>
	<path class="st12" d="M829.7,525.8c-0.3-0.6-0.9-0.4-1.4-0.4c-9.6,0-19.1,0-28.7,0c0.4-0.2,0.8-0.1,1.1-0.1c9.3,0,18.6,0,27.9,0
		C829,525.3,829.7,524.9,829.7,525.8z"/>
	<path class="st13" d="M1037.4,525.6c-0.5,0-1-0.1-1.5-0.1c-8.6,0-17.1,0-25.7,0c-0.4,0-1.4,0.6-1-0.7c0.2,0.9,0.9,0.5,1.4,0.5
		c8.5,0,17,0,25.4,0C1036.5,525.3,1037,525.1,1037.4,525.6z"/>
	<path class="st12" d="M427.7,529.9c-0.3,0.4-0.7,0.2-1.1,0.2c-8.7,0-17.3,0-26,0c-0.4,0-1.4,0.4-0.9-0.8c0.2,0.9,0.9,0.6,1.5,0.6
		C410.1,530,418.9,529.9,427.7,529.9z"/>
	<path class="st13" d="M390,598.8c0-0.6,0.5-0.5,0.9-0.5c8.9,0,17.7,0,26.6,0c0.2,0,0.5-0.1,0.7,0.2c-8.8,0-17.7,0-26.5,0
		C391.1,598.6,390.5,598.4,390,598.8z"/>
	<path class="st12" d="M978.8,525.3c-0.1,0.3-0.4,0.2-0.7,0.2c-4.9,0-9.9,0-14.8,0c0.4-0.3,0.9-0.2,1.4-0.2
		C969.4,525.3,974.1,525.3,978.8,525.3z"/>
	<path class="st13" d="M984.1,403.6c-0.1-0.4,0.3-1.1-0.6-1.1c-4.3,0.1-8.6-0.1-12.9,0.1c0.2-0.4,0.7-0.3,1-0.3c3.9,0,7.7,0,11.6,0
		C984.3,402.3,984.6,402.6,984.1,403.6z"/>
	<path class="st13" d="M1036.6,387.9c-0.4-0.2-0.9-0.2-1.4-0.2c-4.2,0-8.4,0-12.6,0c0.3-0.4,0.7-0.3,1.1-0.3c3.9,0,7.8,0,11.8,0
		C1035.9,387.6,1036.4,387.4,1036.6,387.9z"/>
	<path class="st12" d="M962.8,457.7c0.7,0.3,1.4,0.2,2,0.2c3.5,0,7,0,10.6,0c0.5,0,0.9,0.1,1.4-0.1c-0.3,0.4-0.7,0.3-1.1,0.3
		c-4,0-7.9,0-11.9,0C963.5,458,963.1,458.1,962.8,457.7z"/>
	<path class="st12" d="M873.7,402.8c-0.1-0.2-0.3-0.3-0.5-0.3c-4.3,0-8.7,0-13,0.1c0.3-0.4,0.8-0.3,1.2-0.3c3.8,0,7.6,0,11.4,0
		C873.1,402.3,873.9,401.8,873.7,402.8z"/>
	<path class="st13" d="M1026.6,457.8c2.9,0,5.9,0,8.8,0.1c0.6,0,1.1,0,1.3-0.7c0,0.4,0,0.8-0.5,0.8
		C1032.9,457.9,1029.7,458.2,1026.6,457.8z"/>
	<path class="st13" d="M1043.9,404.1c-2.8,0-5.6,0-8.3-0.1c-0.4,0-0.9,0.2-1.2-0.2c2.7,0,5.5,0,8.2,0
		C1043,403.9,1043.5,403.7,1043.9,404.1z"/>
	<path class="st12" d="M669.2,525.5c-3,0-6,0-9,0c1-0.4,2-0.2,3-0.2C665.2,525.3,667.2,525,669.2,525.5z"/>
	<path class="st12" d="M736.3,525.5c-2.3,0-4.7,0-7,0C731.7,525.1,734,525.2,736.3,525.5z"/>
	<path class="st12" d="M773.5,563.1c0-2.2,0-4.5,0-6.7C773.8,558.6,773.8,560.8,773.5,563.1z"/>
	<path class="st12" d="M837.7,613.8c-2.2,0.2-4.4,0.4-6.5,0C833.3,613.8,835.5,613.8,837.7,613.8z"/>
	<path class="st13" d="M1020.3,403.9c-1.5,0.5-3,0.1-4.5,0.2c-0.5,0-1.1-0.2-1.4,0.4c0-0.7,0.6-0.6,1-0.6
		C1017,403.9,1018.7,403.9,1020.3,403.9z"/>
	<path class="st12" d="M544.4,613.8c-2.1,0.1-4.2,0.4-6.3,0C540.2,613.8,542.3,613.8,544.4,613.8z"/>
	<path class="st12" d="M788.6,605.8c0,1.9,0,3.8,0,5.7C788.3,609.6,788.3,607.7,788.6,605.8z"/>
	<path class="st13" d="M743.3,564.6c-1.6,0.5-3.2,0.1-4.8,0.2C740,564.4,741.7,564.8,743.3,564.6z"/>
	<path class="st12" d="M903.8,420.9c0-1.5,0-2.9,0-4.4C904.1,418,904.1,419.5,903.8,420.9z"/>
	<path class="st13" d="M656.5,554.5c1.5-0.3,3-0.2,4.4-0.2C659.5,554.8,658,554.4,656.5,554.5z"/>
	<path class="st13" d="M967.7,607.6c0,1.3,0,2.6,0,3.9C967.3,610.2,967.3,608.9,967.7,607.6z"/>
	<path class="st12" d="M448.5,552c1.3,0,2.6,0,3.9,0C451.1,552.3,449.8,552.3,448.5,552z"/>
	<path class="st12" d="M462.9,547.3c0,1.1,0,2.2,0,3.3C462.6,549.5,462.7,548.4,462.9,547.3z"/>
	<path class="st12" d="M496.6,597.8c0,1.1,0,2.3-0.2,3.4C496.5,600.1,496.2,598.9,496.6,597.8z"/>
	<path class="st13" d="M724.4,554.5c1.1-0.3,2.2-0.2,3.4-0.2C726.7,554.8,725.5,554.4,724.4,554.5z"/>
	<path class="st12" d="M596.2,570.6c0.1-1.1,0.1-2.1,0.2-3.2C596.4,568.5,596.7,569.5,596.2,570.6z"/>
	<path class="st12" d="M496.4,605c0.2,1,0.2,2.1,0.2,3.1C496.2,607.1,496.5,606,496.4,605z"/>
	<path class="st12" d="M596.4,563.4c-0.2-1-0.2-1.9-0.2-2.9C596.7,561.4,596.4,562.4,596.4,563.4z"/>
	<path class="st12" d="M817.4,445.2c-1,0-2,0.1-2.9-0.2C815.5,445.1,816.5,444.8,817.4,445.2z"/>
	<path class="st13" d="M1008.9,613.8c-1,0.3-1.9,0.3-2.9,0C1007,613.8,1008,613.8,1008.9,613.8z"/>
	<path class="st12" d="M957.9,424.8c0-1,0-1.9,0.2-2.9C958,422.9,958.4,423.9,957.9,424.8z"/>
	<path class="st12" d="M655.9,525.6c-1,0.2-1.9,0.2-2.9,0.2C653.9,525.3,654.9,525.6,655.9,525.6z"/>
	<path class="st12" d="M820.6,445c-0.8,0.3-1.7,0.2-2.6,0.2C818.8,444.8,819.7,445.1,820.6,445z"/>
	<path class="st13" d="M273.8,513.6c-0.1,0.9-0.1,1.8-0.2,2.6C273.7,515.4,273.4,514.5,273.8,513.6z"/>
	<path class="st13" d="M273.6,518.8c0.1,0.9,0.1,1.8,0.2,2.6C273.4,520.5,273.7,519.6,273.6,518.8z"/>
	<path class="st13" d="M306.8,582.8c0.8,0,1.6,0,2.4,0.2C308.4,582.9,307.5,583.2,306.8,582.8z"/>
	<path class="st12" d="M958.1,420.7c-0.1-0.8-0.1-1.6-0.2-2.4C958.3,419.1,958.1,420,958.1,420.7z"/>
	<path class="st13" d="M312.7,583c0.8-0.2,1.6-0.2,2.4-0.2C314.3,583.2,313.5,582.9,312.7,583z"/>
	<path class="st12" d="M819.3,603.5c-0.2-0.8-0.2-1.6,0-2.4C819.3,601.9,819.3,602.7,819.3,603.5z"/>
	<path class="st13" d="M270.2,614.4c0.8,0,1.5,0,2.3,0C271.8,614.7,271,614.7,270.2,614.4z"/>
	<path class="st13" d="M1029.1,443.5c-0.3-0.8-0.3-1.6,0-2.4C1029.1,441.9,1029.1,442.7,1029.1,443.5z"/>
	<path class="st13" d="M1014.8,443.5c0,0.8,0,1.5,0,2.3C1014.5,445,1014.5,444.3,1014.8,443.5z"/>
	<path class="st13" d="M321.5,573.1c-0.8,0-1.5,0-2.3,0C320,572.8,320.8,572.8,321.5,573.1z"/>
	<path class="st13" d="M729.6,554.3c0.8,0,1.6-0.1,2.4,0.2C731.2,554.5,730.4,554.7,729.6,554.3z"/>
	<path class="st13" d="M734.9,564.9c-0.8,0.2-1.6,0.2-2.4,0.2C733.2,564.7,734.1,565,734.9,564.9z"/>
	<path class="st13" d="M263,571.8c-0.8,0-1.5,0-2.3,0C261.4,571.5,262.2,571.5,263,571.8z"/>
	<path class="st13" d="M257.5,595.9c-0.7,0-1.4,0-2.1,0C256.2,595.6,256.8,595.6,257.5,595.9z"/>
	<path class="st13" d="M675.1,608.1c0,0.7,0,1.4-0.2,2.1C675,609.6,674.8,608.8,675.1,608.1z"/>
	<path class="st12" d="M549.3,613.6c-0.7,0.3-1.4,0.2-2.1,0.2C547.9,613.4,548.6,613.7,549.3,613.6z"/>
	<path class="st12" d="M813,406.2c-0.3-0.7-0.3-1.4,0-2.2C813,404.8,813,405.5,813,406.2z"/>
	<path class="st12" d="M843.3,642.5c0.7-0.2,1.4-0.2,2.1-0.2C844.8,642.8,844,642.5,843.3,642.5z"/>
	<path class="st13" d="M316.1,563.7c0.7,0,1.4,0,2.1,0.2C317.5,563.8,316.8,564.1,316.1,563.7z"/>
	<path class="st13" d="M321.8,563.8c0.7-0.2,1.4-0.2,2.1-0.2C323.2,564.1,322.5,563.8,321.8,563.8z"/>
	<path class="st13" d="M241.2,642.1c0.7,0,1.4,0,2.1,0C242.6,642.4,241.9,642.4,241.2,642.1z"/>
	<path class="st13" d="M295.4,596.2c0-0.7,0-1.4,0-2C295.8,594.8,295.7,595.5,295.4,596.2z"/>
	<path class="st13" d="M991,414.5c0.6-0.2,1.3-0.2,1.9,0C992.2,414.5,991.6,414.5,991,414.5z"/>
	<path class="st13" d="M663,554.3c0.6,0,1.3-0.1,1.9,0.2C664.3,554.5,663.6,554.7,663,554.3z"/>
	<path class="st13" d="M308.6,573.9c-0.6,0-1.2,0.1-1.8-0.2C307.4,573.8,308,573.5,308.6,573.9z"/>
	<path class="st13" d="M315.1,573.7c-0.6,0.3-1.2,0.2-1.8,0.2C313.8,573.5,314.5,573.8,315.1,573.7z"/>
	<path class="st12" d="M842.3,613.6c-0.6,0.2-1.2,0.2-1.8,0.2C841.1,613.4,841.7,613.6,842.3,613.6z"/>
	<path class="st13" d="M370.5,520.1c0,0.6,0.1,1.3-0.2,1.9C370.3,521.4,370.1,520.7,370.5,520.1z"/>
	<path class="st12" d="M317.2,471.2c-0.6,0.2-1.2,0.2-1.8,0.2C315.9,471,316.5,471.3,317.2,471.2z"/>
	<path class="st12" d="M526,601.6c0-0.6-0.1-1.3,0.2-1.9C526.2,600.4,526.4,601.1,526,601.6z"/>
	<path class="st13" d="M998.3,602.2c0-0.6-0.1-1.3,0.2-1.9C998.5,600.9,998.8,601.6,998.3,602.2z"/>
	<path class="st12" d="M809.9,458.3c0.6,0,1.2,0,1.9,0.2C811.2,458.4,810.5,458.7,809.9,458.3z"/>
	<path class="st12" d="M650.7,525.8c-0.6,0.2-1.2,0.2-1.9,0.2C649.4,525.6,650,525.9,650.7,525.8z"/>
	<path class="st13" d="M675,614.3c0.2,0.6,0.2,1.2,0.2,1.9C674.8,615.5,675,614.9,675,614.3z"/>
	<path class="st12" d="M740.5,525.8c-0.6,0-1.2,0-1.8-0.2C739.3,525.6,739.9,525.3,740.5,525.8z"/>
	<path class="st12" d="M833.8,381.8c-0.5,0-1.1,0-1.6-0.2C832.7,381.7,833.3,381.4,833.8,381.8z"/>
	<path class="st12" d="M547.4,642.5c0.5-0.2,1.1-0.2,1.6-0.2C548.5,642.7,548,642.5,547.4,642.5z"/>
	<path class="st12" d="M885.9,401.8c-0.5,0.2-1,0.2-1.6,0.2C884.8,401.6,885.3,401.9,885.9,401.8z"/>
	<path class="st12" d="M935.9,401.8c-0.5,0.2-1.1,0.2-1.6,0.2C934.8,401.6,935.4,401.9,935.9,401.8z"/>
	<path class="st12" d="M909.9,433.9c0,0.5,0,1.1-0.2,1.6C909.8,435,909.5,434.4,909.9,433.9z"/>
	<path class="st13" d="M730.7,565.2c-0.5,0.2-1.1,0.2-1.6,0.2C729.6,565,730.2,565.2,730.7,565.2z"/>
	<path class="st12" d="M459.1,546.9c-0.2-0.6-0.2-1.1,0-1.7C459.1,545.7,459.1,546.3,459.1,546.9z"/>
	<path class="st12" d="M773.2,566.4c0-0.5,0-1.1,0.2-1.6C773.3,565.4,773.6,566,773.2,566.4z"/>
	<path class="st12" d="M596,573.9c0-0.5,0-1.1,0.2-1.6C596.1,572.9,596.4,573.5,596,573.9z"/>
	<path class="st12" d="M727.1,525.6c-0.5,0.2-1.1,0.2-1.6,0.2C726,525.4,726.6,525.6,727.1,525.6z"/>
	<path class="st13" d="M652.6,554.8c0.5-0.2,1-0.2,1.6-0.2C653.7,555,653.2,554.7,652.6,554.8z"/>
	<path class="st12" d="M788.9,602.2c0,0.5,0,1.1-0.2,1.6C788.8,603.2,788.5,602.7,788.9,602.2z"/>
	<path class="st12" d="M672.9,525.7c-0.5,0-1.1,0-1.6-0.2C671.8,525.6,672.4,525.4,672.9,525.7z"/>
	<path class="st12" d="M496.9,594.4c0,0.5,0,1.1-0.2,1.6C496.7,595.5,496.5,594.9,496.9,594.4z"/>
	<path class="st13" d="M370.3,513c0.2,0.5,0.2,1.1,0.2,1.6C370.1,514.1,370.3,513.6,370.3,513z"/>
	<path class="st12" d="M526.2,604.1c-0.3-0.5-0.2-1.1-0.2-1.6C526.4,603,526.2,603.5,526.2,604.1z"/>
	<path class="st13" d="M967.9,603.5c0,0.5,0,1.1-0.2,1.6C967.8,604.5,967.6,604,967.9,603.5z"/>
	<path class="st13" d="M366.3,514.2c-0.2-0.5-0.2-1.1-0.2-1.6C366.5,513.1,366.3,513.7,366.3,514.2z"/>
	<path class="st12" d="M324.6,471.4c-0.6,0-1.1,0-1.6-0.2C323.6,471.2,324.1,471,324.6,471.4z"/>
	<path class="st12" d="M552.4,613.3c-0.5,0.2-1,0.2-1.6,0.2C551.3,613.1,551.9,613.4,552.4,613.3z"/>
	<path class="st12" d="M818.7,458.5c0.5-0.2,1.1-0.2,1.6-0.2C819.8,458.7,819.2,458.4,818.7,458.5z"/>
	<path class="st12" d="M483.5,535.1c-0.1-0.3,0.1-0.7-0.3-0.8c0.1-0.1,0.2-0.2,0.4-0.3C483.9,534.4,483.8,534.8,483.5,535.1z"/>
	<path class="st12" d="M847.2,642.3c0.5-0.2,1.1-0.2,1.6-0.2C848.3,642.5,847.7,642.2,847.2,642.3z"/>
	<path class="st12" d="M828.9,394.6c0.5,0,0.9,0,1.3,0.2C829.7,394.8,829.3,395,828.9,394.6z"/>
	<path class="st12" d="M890.5,402c-0.5,0-0.9,0-1.3-0.2C889.6,401.8,890.1,401.6,890.5,402z"/>
	<path class="st13" d="M941,402c-0.5-0.1-0.9-0.1-1.4-0.2C940.1,401.8,940.6,401.7,941,402z"/>
	<path class="st13" d="M996.8,401.8c-0.4,0.2-0.9,0.2-1.3,0.2C995.9,401.7,996.3,401.8,996.8,401.8z"/>
	<path class="st13" d="M1001.4,402c-0.5,0-0.9,0-1.4-0.2C1000.5,401.8,1001,401.6,1001.4,402z"/>
	<path class="st13" d="M984.1,407c-0.2,0.1-0.3,0.3-0.5,0.4c-0.2-0.4-0.1-0.7,0.1-1C983.8,406.6,983.9,406.9,984.1,407z"/>
	<path class="st12" d="M845.2,613.3c-0.4,0.2-0.9,0.2-1.3,0.2C844.3,613.2,844.8,613.4,845.2,613.3z"/>
	<path class="st13" d="M721.5,554.8c0.4-0.2,0.9-0.2,1.4-0.2C722.5,554.9,722,554.8,721.5,554.8z"/>
	<path class="st13" d="M316.3,582.8c0.4-0.2,0.9-0.2,1.3-0.2C317.3,582.9,316.8,582.7,316.3,582.8z"/>
	<path class="st13" d="M650,555c0.4-0.2,0.9-0.2,1.3-0.2C651,555.2,650.5,555,650,555z"/>
	<path class="st12" d="M798.5,404.9c0,0.4,0,0.9-0.2,1.3C798.3,405.8,798.1,405.3,798.5,404.9z"/>
	<path class="st12" d="M909.7,441.9c0.2,0.4,0.2,0.9,0.2,1.3C909.5,442.8,909.7,442.3,909.7,441.9z"/>
	<path class="st13" d="M967.8,614c0.2,0.4,0.2,0.9,0.2,1.4C967.6,614.9,967.8,614.5,967.8,614z"/>
	<path class="st12" d="M932.2,458.5c0.4-0.2,0.9-0.2,1.3-0.2C933.1,458.6,932.7,458.4,932.2,458.5z"/>
	<path class="st12" d="M773.4,554.8c-0.2-0.4-0.2-0.9-0.2-1.3C773.6,553.9,773.4,554.4,773.4,554.8z"/>
	<path class="st12" d="M724.2,525.8c-0.4,0.2-0.9,0.2-1.3,0.2C723.3,525.7,723.8,525.9,724.2,525.8z"/>
	<path class="st12" d="M824.8,381.6c-0.4,0.2-0.9,0.2-1.4,0.2C823.8,381.5,824.3,381.6,824.8,381.6z"/>
	<path class="st12" d="M852.4,641.8c0.4-0.2,0.9-0.2,1.3-0.2C853.3,641.9,852.9,641.7,852.4,641.8z"/>
	<path class="st12" d="M552.9,642c0.4-0.2,0.9-0.2,1.3-0.2C553.8,642.2,553.3,642,552.9,642z"/>
	<path class="st12" d="M850,642c0.4-0.2,0.9-0.2,1.3-0.2C851,642.2,850.5,642,850,642z"/>
	<path class="st12" d="M647,526.1c-0.4,0.2-0.9,0.2-1.4,0.2C646.1,525.9,646.6,526.1,647,526.1z"/>
	<path class="st12" d="M550.5,642.3c0.4-0.2,0.9-0.2,1.3-0.2C551.5,642.5,551,642.3,550.5,642.3z"/>
	<path class="st13" d="M366.2,522.2c0-0.5,0-0.9,0.2-1.4C366.3,521.3,366.5,521.7,366.2,522.2z"/>
	<path class="st12" d="M926,458.3c0.5,0,0.9,0,1.3,0.2C926.9,458.4,926.4,458.6,926,458.3z"/>
	<path class="st12" d="M644.2,526.3c-0.4,0.2-0.9,0.2-1.4,0.2C643.2,526.2,643.7,526.4,644.2,526.3z"/>
	<path class="st12" d="M496.7,609.6c0.2,0.4,0.2,0.9,0.2,1.3C496.5,610.6,496.7,610.1,496.7,609.6z"/>
	<path class="st12" d="M497.1,591.8c0,0.4,0,0.9-0.2,1.3C497,592.7,496.8,592.2,497.1,591.8z"/>
	<path class="st12" d="M881.7,458.5c0.4-0.2,0.9-0.2,1.3-0.2C882.6,458.6,882.1,458.4,881.7,458.5z"/>
	<path class="st12" d="M596.2,559c-0.2-0.4-0.2-0.9-0.2-1.3C596.3,558.1,596.1,558.5,596.2,559z"/>
	<path class="st12" d="M554.7,613.1c-0.4,0.2-0.9,0.2-1.3,0.2C553.8,612.9,554.3,613.1,554.7,613.1z"/>
	<path class="st12" d="M910.2,431.6c0,0.4,0,0.9-0.2,1.3C910,432.4,909.8,432,910.2,431.6z"/>
	<path class="st13" d="M998.5,605.9c-0.2-0.4-0.2-0.9-0.2-1.4C998.7,604.9,998.5,605.4,998.5,605.9z"/>
	<path class="st12" d="M957.7,427.7c0-0.5,0-0.9,0.2-1.3C957.8,426.8,958,427.3,957.7,427.7z"/>
	<path class="st12" d="M847,435.2c0-0.5,0-0.9,0.2-1.3C847.2,434.3,847.4,434.8,847,435.2z"/>
	<path class="st12" d="M903.5,424.3c0-0.5,0-0.9,0.2-1.4C903.7,423.4,903.9,423.9,903.5,424.3z"/>
	<path class="st12" d="M788.7,613.3c0.2,0.4,0.2,0.9,0.2,1.3C788.5,614.2,788.7,613.7,788.7,613.3z"/>
	<path class="st12" d="M909.6,438.3c0,0.4,0,0.9,0,1.3C909.3,439.2,909.3,438.7,909.6,438.3z"/>
	<path class="st13" d="M548.4,570.7c-5.5,0-11.1,0-16.6,0c-1.6,0-1.6,0-1.3-1.5c1.9-8.8,7.7-13.9,16.7-14.7c3.2-0.3,6.5-0.4,9.7,0.2
		c7.7,1.5,10,6.7,9.9,12.9c-0.1,3.1-0.2,3.1-3.3,3.1C558.4,570.7,553.4,570.7,548.4,570.7z"/>
	<path class="st13" d="M722,614c-2.6,0.1-6.3,0.1-10-0.9c-0.5-0.1-0.9-0.3-1.4-0.4c-5.8-2.1-7-8.4-2.4-12.6
		c2.9-2.6,6.5-3.7,10.1-4.6c6.6-1.5,13.2-1.8,19.9-1.8c0.6,0,1,0,0.9,0.8c-0.9,5.8-1.7,11.7-2.5,17.5c-0.1,0.7-0.3,1-1,1
		C731.5,613.5,727.4,613.9,722,614z"/>
	<path class="st13" d="M869.6,436.2c0.4-4.9,0.9-9.4,2.2-13.7c0.3-1,0.7-1.9,1.1-2.9c2.8-5.7,8.5-5.9,12.2-4.7
		c2.5,0.8,3.6,2.9,4.1,5.4c0.5,3.1,0.1,6.2-0.3,9.3c-0.5,3.4-1,6.8-2.3,10c-2.1,5-5.9,7.2-11.2,6.3c-3.3-0.5-5.2-2.6-5.6-6.1
		C869.7,438.4,869.7,437.1,869.6,436.2z"/>
	<path class="st13" d="M923.7,436.5c0.3-4.9,0.7-9.8,2.3-14.5c1.8-5.4,6.1-8.2,11.3-7.6c3.8,0.5,6.2,2.7,6.5,6.5
		c0.5,6.3-0.4,12.5-2.6,18.4c-1.4,3.7-4.2,6-8.2,6.6c-5.3,0.7-8.9-2.1-9.3-7.5C923.7,437.8,923.7,437.1,923.7,436.5z"/>
</g>
</svg>
